<svg width="140" height="140" fill="none" xmlns="http://www.w3.org/2000/svg"><path fill-rule="evenodd" clip-rule="evenodd" d="M116.462 71.447a4.604 4.604 0 00-2.752-5.9L81.125 53.68a4.604 4.604 0 00-5.902 2.752L65.178 84.046c-1.869 5.137.78 10.817 5.917 12.688l22.63 8.242c5.14 1.871 10.823-.779 12.693-5.919l10.044-27.61z" fill="#1684FC"/><path d="M67.461 59.99l.348 6.343-7.095 4.182-5.178-3.462a2.074 2.074 0 01-.92-1.657l-.476-14.89 12.362 7.848c.565.359.922.968.959 1.637z" stroke="#1684FC"/><path fill-rule="evenodd" clip-rule="evenodd" d="M54.4 50.928l7.113 12.32z" fill="#1684FC"/><path d="M54.4 50.928l7.113 12.32" stroke="#1684FC"/><circle cx="60.756" cy="62.285" r="1.363" transform="rotate(105 60.756 62.285)" fill="#1684FC" stroke="#1684FC" stroke-width=".932"/><path fill-rule="evenodd" clip-rule="evenodd" d="M71.177 70.92l-8.878 5.104a1.21 1.21 0 01-1.648-.44 6.62 6.62 0 01-.803-2.228l-.443-2.648a1.799 1.799 0 01.88-1.857l5.661-3.255a1.815 1.815 0 012.055.17l2.08 1.707a6.647 6.647 0 011.536 1.805c.334.575.136 1.31-.44 1.642z" fill="#1684FC"/><path fill-rule="evenodd" clip-rule="evenodd" d="M122.211 79.563a8 8 0 00-8-8H68.173a7.275 7.275 0 01-4.79-1.8l-1.704-1.49a7.275 7.275 0 00-4.79-1.8h-8.98a8 8 0 00-8 8V117a8 8 0 008 8h66.302a8 8 0 008-8V79.563z" fill="#F7F7F9" stroke="#1684FC"/><path fill-rule="evenodd" clip-rule="evenodd" d="M90.001 93.908H72.118c-.617 0-1.117.468-1.117 1.045v12.541c0 .578.5 1.045 1.117 1.045h17.883c.618 0 1.118-.467 1.118-1.045V94.953c0-.577-.5-1.045-1.118-1.045zm-10.516 10.674v-2.652a2.34 2.34 0 011.17-4.364 2.338 2.338 0 011.168 4.364v2.652h-2.338z" fill="#1684FC"/><path fill-rule="evenodd" clip-rule="evenodd" d="M85.838 89.84c-.807-3.018-3.838-4.805-6.753-4.022-2.916.783-4.65 3.85-3.843 6.869l.787 2.944a.457.457 0 01-.883.236l-.787-2.944c-.932-3.485 1.064-7.07 4.488-7.989 3.425-.92 6.943 1.185 7.875 4.67a.457.457 0 01-.884.236z" fill="#1684FC"/><path clip-rule="evenodd" d="M72.83 28.066l8.224 9.807-9.801 8.229-8.225-9.807 9.802-8.23zM22.553 61.152a5.942 5.942 0 018.373.733v0a5.942 5.942 0 01-.731 8.369v0a5.942 5.942 0 01-8.374-.733v0a5.942 5.942 0 01.732-8.37v0z" stroke="#1684FC"/><path d="M54.727 22.78l3.622.226c.69.043 1.038-.817.512-1.265l-2.763-2.355.226-3.624c.043-.69-.818-1.038-1.266-.511l-2.353 2.763-3.622-.226c-.69-.043-1.038.817-.511 1.266l2.762 2.355-.226 3.624c-.043.69.818 1.037 1.266.51l2.353-2.762z" fill="#FFFA66" stroke="#1684FC" stroke-width=".95"/></svg>