<svg width="140" height="140" fill="none" xmlns="http://www.w3.org/2000/svg"><path fill-rule="evenodd" clip-rule="evenodd" d="M114.691 105.823a6.996 6.996 0 017.479-3.481c4.563.9 7.067 5.949 4.868 10.051-1.939 3.616-4.11 7.297-6.916 11.171-1.927 2.661-5.554 3.317-8.423 1.712a6.836 6.836 0 01-2.642-9.27l5.634-10.183zM38.14 105.823a6.998 6.998 0 00-7.48-3.481c-4.563.9-7.067 5.949-4.867 10.051 1.939 3.616 4.11 7.297 6.916 11.171 1.927 2.661 5.554 3.317 8.422 1.712a6.836 6.836 0 002.642-9.27l-5.633-10.183z" fill="#1684FC"/><path fill-rule="evenodd" clip-rule="evenodd" d="M79.836 95.705c-.688-.557-1.457-.753-4.18 2.533-2.724 3.286-1.745-3.365-1.745-3.365s2.745-11.736.602-12.037c-2.143-.301-3.266 11.662-4.735 11.456-1.47-.207 1.806-14.657-.775-14.67-2.58-.012-2.204 14.464-3.805 14.026-1.6-.438.655-12.375-1.646-12.352-2.3.022-2.145 10.264-2.292 11.31-.147 1.047-.16 10.873-18.168 12.571-8.434.795-11.424 2.627-11.414 6.426.01 3.8 4.379 6.289 9.625 6.303 9.867.027 16.036-1.104 23.432-5.459 7.396-4.355 12.128-9.32 13.758-11.908 1.63-2.588 2.03-4.276 1.343-4.834z" fill="#F7F7F9" stroke="#1684FC"/><path fill-rule="evenodd" clip-rule="evenodd" d="M74.51 95.731c.704-.545 1.482-.729 4.164 2.599 2.682 3.327 1.82-3.333 1.82-3.333s-2.546-11.769-.382-12.035c2.165-.266 3.073 11.704 4.557 11.522 1.484-.182-1.547-14.672 1.053-14.642 2.6.03 1.952 14.486 3.572 14.074 1.62-.411-.428-12.374 1.888-12.313 2.317.06 1.97 10.289 2.099 11.337.128 1.048-.041 10.864 18.067 12.856 8.791.966 11.34 3.701 10.988 6.851-.485 4.337-4.816 5.879-9.423 5.895-8.953.03-16.133-1.366-23.503-5.838-7.37-4.472-12.043-9.509-13.637-12.122-1.594-2.612-1.965-4.305-1.262-4.85z" fill="#F7F7F9" stroke="#1684FC"/><path d="M77.355 70.82v3M66.637 76.442l-1.365-2.071M87.656 76.442l1.365-2.071M59.698 86.056l-2.338-1.44M94.12 86.482l2.339-1.441" stroke="#1684FC" stroke-linecap="round"/><g filter="url(#filter0_b)"><rect x="23.297" y="50.484" width="26" height="14" rx="1.864" fill="#1684FC"/></g><rect opacity=".402" x="57.297" y="52.484" width="20" height="10" rx="1.398" fill="#6C4BD5"/><g opacity=".402" filter="url(#filter1_b)"><rect x="83.297" y="52.484" width="20" height="10" rx="1.398" fill="#FF1D47"/></g><rect opacity=".402" x="110.297" y="52.484" width="20" height="10" rx="1.398" fill="#39CCBC"/><path d="M32.458 36.38l6.16-1.883 1.487 4.86a3.221 3.221 0 11-6.161 1.883l-1.486-4.86z" stroke="#1684FC"/><circle cx="32.866" cy="28.579" r="9.768" transform="rotate(-17 32.866 28.58)" fill="#FFFA66"/><path d="M27.68 33.575s5.967-5.566 4-7.973c-1.966-2.407-3.615 3.32.138 4.198 3.752.879 5.077-1.842 4.651-3.237-.427-1.395-2.485-1.073-2.008.614.478 1.687 1.795 3.323 5.376 1.68" stroke="#1684FC" stroke-width=".699"/><path d="M33.164 40.03l7.02-2.146M33.718 41.73l6.73-2.058" stroke="#1684FC"/><path d="M46.923 23.992l-3.11.95M22.048 31.597l-3.11.95M45.968 34.912l-2.897-1.476M22.793 23.103l-2.898-1.476M29.604 17.387l-.95-3.11M25.396 40.81l1.675-2.786M38.793 18.515l1.674-2.787" stroke="#1684FC" stroke-linecap="round"/><path fill="#F7F7F9" stroke="#1684FC" d="M55.297 17.485l5.656 5.657-5.656 5.657-5.657-5.657z"/><rect x="14.297" y="41.484" width="8" height="8" rx="4" transform="rotate(45 14.297 41.484)" fill="#F7F7F9" stroke="#1684FC"/><path fill="#1684FC" d="M62.534 32.328l.5.866-4.834 2.79-.5-.865z"/><path d="M62.828 30.583l-.06-.25-.237-.094-.187.467.187-.467h0-.003l-.006-.003-.018-.007a3.916 3.916 0 00-.296-.1 7.472 7.472 0 00-.803-.2c-.65-.124-1.54-.204-2.412.02-.866.221-1.695.738-2.286 1.173a11.16 11.16 0 00-.985.82l-.016.015-.004.004-.002.001h0l.345.358-.345-.357-.206.202.067.279.115.475.118.486.485-.124 6.298-1.614.484-.124-.117-.485-.116-.475zM64.478 33.56l.18.183-.046.25-.495-.088c.495.089.495.089.494.09h0v.002l-.001.006-.004.02a4.095 4.095 0 01-.072.304 7.482 7.482 0 01-.256.786c-.239.617-.642 1.414-1.295 2.035-.647.617-1.524 1.046-2.206 1.317a11.178 11.178 0 01-1.143.382l-.075.02-.02.005-.006.001h-.002 0-.001l-.12-.481.12.482-.28.067-.201-.205-.342-.349-.35-.358.362-.345 4.706-4.486.362-.345.35.357.341.35z" stroke="#1684FC"/><path d="M69.834 32.24c-2.318 1.285-4.59 2.084-6.379 2.35-.896.133-1.64.128-2.197.004-.558-.124-.864-.35-1.006-.608-.143-.257-.173-.636.017-1.174.19-.538.581-1.173 1.169-1.862 1.173-1.375 3.055-2.88 5.373-4.164 2.318-1.285 4.59-2.084 6.378-2.35.897-.133 1.642-.128 2.198-.005.558.124.864.35 1.006.608.143.258.173.636-.017 1.175-.19.538-.581 1.172-1.169 1.862-1.173 1.375-3.055 2.88-5.373 4.164z" fill="#F7F7F9" stroke="#1684FC" stroke-width="1.083"/><mask id="a" maskUnits="userSpaceOnUse" x="58" y="21" width="21" height="17"><path d="M69.856 32.276c-2.321 1.286-4.599 2.087-6.393 2.354-.899.134-1.65.13-2.213.004-.564-.125-.883-.356-1.033-.628-.15-.272-.178-.664.015-1.209.192-.544.586-1.183 1.176-1.875 1.177-1.38 3.063-2.887 5.384-4.174 2.321-1.286 4.599-2.087 6.393-2.354.9-.134 1.65-.13 2.213-.004.565.126.883.356 1.033.628.151.272.178.664-.014 1.21-.193.544-.587 1.182-1.177 1.874-1.177 1.38-3.063 2.887-5.384 4.174z" fill="#F7F7F9" stroke="#1684FC"/></mask><g mask="url(#a)"><path d="M65.343 20.264c-1.812 1.005-3.57 7.069-1.017 11.674 2.553 4.604 8.45 6.007 10.26 5.003" stroke="#1684FC"/></g><circle cx="71.93" cy="27.446" r="1.5" transform="rotate(61 71.93 27.446)" fill="#1684FC"/><path d="M56.737 36.345c-15.09 9.81-28.033 15.906-35.94 25.657-4.978 6.14-2.686 6.747 6.876 1.82" stroke="#1684FC" stroke-linejoin="bevel" stroke-dasharray="2.8 2.1"/><defs><filter id="filter0_b" x="22.48" y="49.668" width="27.633" height="15.633" filterUnits="userSpaceOnUse" color-interpolation-filters="sRGB"><feFlood flood-opacity="0" result="BackgroundImageFix"/><feGaussianBlur in="BackgroundImage" stdDeviation=".408"/><feComposite in2="SourceAlpha" operator="in" result="effect1_backgroundBlur"/><feBlend in="SourceGraphic" in2="effect1_backgroundBlur" result="shape"/></filter><filter id="filter1_b" x="45.296" y="14.484" width="96.001" height="86.001" filterUnits="userSpaceOnUse" color-interpolation-filters="sRGB"><feFlood flood-opacity="0" result="BackgroundImageFix"/><feGaussianBlur in="BackgroundImage" stdDeviation="19"/><feComposite in2="SourceAlpha" operator="in" result="effect1_backgroundBlur"/><feBlend in="SourceGraphic" in2="effect1_backgroundBlur" result="shape"/></filter></defs></svg>