<svg width="140" height="140" fill="none" xmlns="http://www.w3.org/2000/svg"><mask id="a" maskUnits="userSpaceOnUse" x="0" y="0" width="140" height="140"><path fill="#D8D8D8" d="M0 0h140v140H0z"/></mask><g mask="url(#a)"><path stroke="#1684FC" d="M113.503 99.785l5.657 5.657-5.657 5.657-5.657-5.657z"/><rect x="85.938" y="120.612" width="7" height="7" rx="3.5" transform="rotate(45 85.938 120.612)" stroke="#1684FC"/><path clip-rule="evenodd" d="M103.715 96.71a.2.2 0 01-.111.363l-2.094.053a.2.2 0 00-.158.084l-1.215 1.707a.2.2 0 01-.363-.111l-.052-2.095a.2.2 0 00-.084-.157l-1.707-1.215a.2.2 0 01.11-.363l2.095-.053a.2.2 0 00.158-.084l1.215-1.707a.2.2 0 01.363.111l.052 2.095a.202.202 0 00.084.158l1.707 1.214z" stroke="#1684FC"/><path fill-rule="evenodd" clip-rule="evenodd" d="M105.942 116.339a7 7 0 017.48-3.482c4.563.9 7.067 5.949 4.868 10.051-1.939 3.617-4.111 7.297-6.916 11.172-1.927 2.661-5.554 3.317-8.423 1.712a6.836 6.836 0 01-2.642-9.27l5.633-10.183z" fill="#1684FC"/><path fill-rule="evenodd" clip-rule="evenodd" d="M70.524 86.455l.052.204c-4.937 2.594-3.313 7.607-3.299 7.699.384 2.457 3.874 8.221 6.383 8.364 2.51.143 2.771-1.427 2.693-1.631-.079-.205-.478-.922-1.04-2.094-1.362-2.838-3.642-7.095-3.76-7.419l.73.31 1.279 3.257c5.226 12.749 11.801 17.986 14.969 20.296 0 0 3.26 2.689 5.53 4.976l7.297 7.658a6.644 6.644 0 008.324 1.055v0c4.232-2.637 4.194-8.882.091-11.716-5.782-3.993-12.397-9.161-13.765-12.716-.186-.497-.27-.638-.341-.837-3.643-10.088-4.075-14.762-7.957-17.553-.583-.42-2.358-1.567-4.92-2.043-3.219-.597-6.508.226-7.448.498l-.345-.48-.44-.614-.73-1.02s-.378-.248-.7-.673c-.324-.425-1.364-1.46-2.01-1.212-1.222.469-1.483 2.184-.593 5.69z" fill="#F7F7F9" stroke="#1684FC"/><path d="M71.02 95.977s1.422-1.142 2.478-.54" stroke="#1684FC" stroke-linecap="round"/><path d="M75.44 79.07l-.437-5.654a1.5 1.5 0 00-2.143-1.237l-5.115 2.448a.5.5 0 01-.334.035l-5.513-1.331a1.5 1.5 0 00-1.839 1.656l.748 5.622a.5.5 0 01-.07.328l-2.97 4.831a1.5 1.5 0 001.007 2.26l5.578 1.027a.5.5 0 01.29.168l3.678 4.317a1.5 1.5 0 002.46-.259l2.7-4.987a.5.5 0 01.25-.224l5.242-2.164a1.5 1.5 0 00.515-2.42l-3.91-4.11a.5.5 0 01-.136-.305z" fill="#FFFA66" stroke="#1684FC"/><path fill-rule="evenodd" clip-rule="evenodd" d="M83.966 95.803l-.659-.678-4.04-4.83s-3.785-5.12-5.424-7.356c-1.64-2.236-2.789-1.922-2.789-1.922-1.955.75-1.102 5.287 2.67 14.5" fill="#F7F7F9"/><path d="M83.966 95.803l-.659-.678-4.04-4.83s-3.785-5.12-5.424-7.356c-1.64-2.236-2.789-1.922-2.789-1.922-1.955.75-1.102 5.287 2.67 14.5" stroke="#1684FC" stroke-linecap="round"/><path d="M73.527 95.436l.208.401" stroke="#1684FC"/><g filter="url(#filter0_b)"><rect x="23.297" y="50.838" width="26" height="14" rx="1.864" fill="#1684FC"/></g><rect opacity=".402" x="56" y="52.838" width="20" height="10" rx="1.398" fill="#6C4BD5"/><g opacity=".402" filter="url(#filter1_b)"><rect x="83" y="52.838" width="20" height="10" rx="1.398" fill="#FF1D47"/></g><rect opacity=".402" x="110" y="52.838" width="20" height="10" rx="1.398" fill="#39CCBC"/><path fill="#F7F7F9" stroke="#1684FC" d="M43 24.838l5.657 5.657L43 36.152l-5.657-5.657z"/><rect x="14" y="41.838" width="8" height="8" rx="4" transform="rotate(45 14 41.838)" fill="#F7F7F9" stroke="#1684FC"/><path d="M23.499 37.146l3.617 1.807c.64.32 1.318-.36.998-1l-1.806-3.616 1.81-3.618c.32-.64-.359-1.32-.999-1l-3.618 1.812-3.617-1.807c-.64-.32-1.318.359-.998.999l1.806 3.616-1.81 3.619c-.32.64.359 1.319.999.999l3.618-1.811z" fill="#FFFA66" stroke="#1684FC"/><path fill="#1684FC" d="M62.534 32.681l.5.866-4.834 2.791-.5-.866z"/><path d="M62.828 30.936l-.06-.249-.237-.094-.187.467.187-.467h0-.001l-.002-.001-.006-.002-.018-.007a3.916 3.916 0 00-.296-.1 7.52 7.52 0 00-.803-.2c-.65-.124-1.54-.205-2.412.02-.866.221-1.695.738-2.286 1.173a11.154 11.154 0 00-.985.82l-.016.014-.004.005H55.7v.001h0l.345.357-.345-.356-.206.202.067.279.115.475.118.486.485-.124 6.298-1.614.484-.124-.117-.485-.116-.476zM64.478 33.913l.18.184-.046.25-.495-.088.495.089h0v.001l-.001.002-.001.006-.004.02a5.572 5.572 0 01-.072.304 7.482 7.482 0 01-.256.786c-.239.616-.642 1.413-1.295 2.035-.647.617-1.524 1.046-2.206 1.317a11.144 11.144 0 01-1.218.401l-.02.005-.006.002h-.002 0-.001l-.12-.481.12.481-.28.068-.201-.205-.342-.35-.35-.357.362-.345 4.706-4.486.362-.345.35.357.341.35z" stroke="#1684FC"/><path d="M69.834 32.594c-2.318 1.285-4.59 2.083-6.379 2.35-.896.133-1.64.128-2.197.004-.558-.124-.864-.35-1.006-.608-.143-.257-.173-.636.017-1.175.19-.538.581-1.172 1.169-1.861 1.173-1.376 3.055-2.88 5.373-4.165 2.318-1.284 4.59-2.083 6.378-2.35.897-.133 1.642-.128 2.199-.004.557.124.863.35 1.005.608.143.257.173.636-.017 1.175-.19.538-.581 1.172-1.169 1.861-1.173 1.376-3.055 2.88-5.373 4.165z" fill="#F7F7F9" stroke="#1684FC" stroke-width="1.083"/><mask id="b" maskUnits="userSpaceOnUse" x="58" y="21" width="21" height="17"><path d="M69.856 32.63c-2.321 1.286-4.599 2.087-6.393 2.354-.899.134-1.65.13-2.213.004-.564-.126-.883-.356-1.033-.628-.15-.272-.178-.664.015-1.21.192-.544.586-1.182 1.176-1.874 1.177-1.38 3.063-2.887 5.384-4.174 2.321-1.286 4.599-2.087 6.393-2.354.9-.134 1.65-.13 2.213-.004.565.125.883.356 1.033.628.151.272.178.664-.014 1.21-.193.544-.587 1.182-1.177 1.874-1.177 1.38-3.063 2.887-5.384 4.174z" fill="#F7F7F9" stroke="#1684FC"/></mask><g mask="url(#b)"><path d="M65.343 20.618c-1.812 1.004-3.57 7.068-1.017 11.673s8.45 6.008 10.26 5.003" stroke="#1684FC"/></g><circle cx="71.93" cy="27.8" r="1.5" transform="rotate(61 71.93 27.8)" fill="#1684FC"/><path d="M56.737 36.699c-15.09 9.81-28.033 15.906-35.94 25.657-4.978 6.14-2.686 6.746 6.876 1.82" stroke="#1684FC" stroke-linejoin="bevel" stroke-dasharray="2.8 2.1"/></g><defs><filter id="filter0_b" x="22.48" y="50.022" width="27.633" height="15.633" filterUnits="userSpaceOnUse" color-interpolation-filters="sRGB"><feFlood flood-opacity="0" result="BackgroundImageFix"/><feGaussianBlur in="BackgroundImage" stdDeviation=".408"/><feComposite in2="SourceAlpha" operator="in" result="effect1_backgroundBlur"/><feBlend in="SourceGraphic" in2="effect1_backgroundBlur" result="shape"/></filter><filter id="filter1_b" x="44.999" y="14.838" width="96.001" height="86.001" filterUnits="userSpaceOnUse" color-interpolation-filters="sRGB"><feFlood flood-opacity="0" result="BackgroundImageFix"/><feGaussianBlur in="BackgroundImage" stdDeviation="19"/><feComposite in2="SourceAlpha" operator="in" result="effect1_backgroundBlur"/><feBlend in="SourceGraphic" in2="effect1_backgroundBlur" result="shape"/></filter></defs></svg>